# xmcd CD database file
#
# Track frame offsets:
#	150
#	2042
#	18297
#	37250
#	57260
#	83447
#	110672
#	126565
#	142415
#	161415
#
# Disc length: 2461 seconds
#
# Revision: 0
# Processed by: cddbd v1.5.1PL0 Copyright (c) Steve Scherf et al.
# Submitted via: CDex 1.51
#
DISCID=87099b0a
DTITLE=rough laugh - buss22
DYEAR=2000
DGENRE=JPop
TTITLE0=The Jam
TTITLE1=シンガーソングライダー
TTITLE2=東京深海魚（angler fish mix）
TTITLE3=Mr.Sの大いなる誤算
TTITLE4=ゴメンネ。
TTITLE5=官能小説
TTITLE6=傍観者からの手紙
TTITLE7=WeekendのJazzman達へ
TTITLE8=simple 6 moment
TTITLE9=日蝕
EXTD=YEAR: 2000
EXTT0=
EXTT1=
EXTT2=
EXTT3=
EXTT4=
EXTT5=
EXTT6=
EXTT7=
EXTT8=
EXTT9=
PLAYORDER=
